<svg width="1512" height="982" viewBox="0 0 1512 982" fill="none" xmlns="http://www.w3.org/2000/svg">
<g clip-path="url(#clip0_66_433)">
<rect width="1512" height="982" fill="white"/>
<path d="M0 0H1512V982H0V0Z" fill="#4B4B4B"/>
<path d="M1336 901.157L1349.75 888.592L1336 876.026L1338.75 871L1358 888.592L1338.75 906.183L1336 901.157Z" fill="white"/>
<path d="M1309 901.157L1322.75 888.592L1309 876.026L1311.75 871L1331 888.592L1311.75 906.183L1309 901.157Z" fill="white"/>
<path d="M1282 901.157L1295.75 888.592L1282 876.026L1284.75 871L1304 888.592L1284.75 906.183L1282 901.157Z" fill="white"/>
<path d="M1255 901.157L1268.75 888.592L1255 876.026L1257.75 871L1277 888.592L1257.75 906.183L1255 901.157Z" fill="white"/>
<path d="M1228 901.157L1241.75 888.592L1228 876.026L1230.75 871L1250 888.592L1230.75 906.183L1228 901.157Z" fill="white"/>
<rect x="1421.5" y="9.5" width="45" height="45" rx="12.5" stroke="white" stroke-width="3"/>
<rect x="1363.5" y="51.5" width="45" height="45" rx="12.5" stroke="white" stroke-width="3"/>
<rect x="1497.5" y="93.5" width="45" height="45" rx="12.5" stroke="white" stroke-width="3"/>
<rect x="1507.5" y="19.5" width="25" height="25" rx="7.5" stroke="white" stroke-width="3"/>
<rect x="1466.5" y="71.5" width="25" height="25" rx="7.5" stroke="white" stroke-width="3"/>
<rect x="1427.5" y="122.5" width="25" height="25" rx="7.5" stroke="white" stroke-width="3"/>
<rect x="-1.5" y="364.5" width="45" height="45" rx="12.5" stroke="white" stroke-width="3"/>
<rect x="74.5" y="448.5" width="45" height="45" rx="12.5" stroke="white" stroke-width="3"/>
<rect x="84.5" y="374.5" width="25" height="25" rx="7.5" stroke="white" stroke-width="3"/>
<rect x="43.5" y="426.5" width="25" height="25" rx="7.5" stroke="white" stroke-width="3"/>
<rect x="4.5" y="477.5" width="25" height="25" rx="7.5" stroke="white" stroke-width="3"/>
<path d="M3 137H12V147H3V137Z" fill="white"/>
<path d="M3 156H12V166H3V156Z" fill="white"/>
<path d="M3 176H12V185H3V176Z" fill="white"/>
<path d="M3 195H12V205H3V195Z" fill="white"/>
<path d="M3 214H12V224H3V214Z" fill="white"/>
<path d="M22 137H32V147H22V137Z" fill="white"/>
<path d="M22 156H32V166H22V156Z" fill="white"/>
<path d="M22 176H32V185H22V176Z" fill="white"/>
<path d="M22 195H32V205H22V195Z" fill="white"/>
<path d="M22 214H32V224H22V214Z" fill="white"/>
<path d="M41 137H51V147H41V137Z" fill="white"/>
<path d="M41 156H51V166H41V156Z" fill="white"/>
<path d="M41 176H51V185H41V176Z" fill="white"/>
<path d="M41 195H51V205H41V195Z" fill="white"/>
<path d="M41 214H51V224H41V214Z" fill="white"/>
<path d="M3 657H12V667H3V657Z" fill="white"/>
<path d="M3 676H12V686H3V676Z" fill="white"/>
<path d="M3 696H12V705H3V696Z" fill="white"/>
<path d="M3 715H12V725H3V715Z" fill="white"/>
<path d="M3 734H12V744H3V734Z" fill="white"/>
<path d="M22 657H32V667H22V657Z" fill="white"/>
<path d="M22 676H32V686H22V676Z" fill="white"/>
<path d="M22 696H32V705H22V696Z" fill="white"/>
<path d="M22 715H32V725H22V715Z" fill="white"/>
<path d="M22 734H32V744H22V734Z" fill="white"/>
<path d="M41 657H51V667H41V657Z" fill="white"/>
<path d="M41 676H51V686H41V676Z" fill="white"/>
<path d="M41 696H51V705H41V696Z" fill="white"/>
<path d="M41 715H51V725H41V715Z" fill="white"/>
<path d="M41 734H51V744H41V734Z" fill="white"/>
<path d="M1457 491H1467V501H1457V491Z" fill="white"/>
<path d="M1457 510H1467V520H1457V510Z" fill="white"/>
<path d="M1457 530H1467V539H1457V530Z" fill="white"/>
<path d="M1457 549H1467V559H1457V549Z" fill="white"/>
<path d="M1457 568H1467V578H1457V568Z" fill="white"/>
<path d="M1476 491H1486V501H1476V491Z" fill="white"/>
<path d="M1476 510H1486V520H1476V510Z" fill="white"/>
<path d="M1476 530H1486V539H1476V530Z" fill="white"/>
<path d="M1476 549H1486V559H1476V549Z" fill="white"/>
<path d="M1476 568H1486V578H1476V568Z" fill="white"/>
<path d="M1496 491H1505V501H1496V491Z" fill="white"/>
<path d="M1496 510H1505V520H1496V510Z" fill="white"/>
<path d="M1496 530H1505V539H1496V530Z" fill="white"/>
<path d="M1496 549H1505V559H1496V549Z" fill="white"/>
<path d="M1496 568H1505V578H1496V568Z" fill="white"/>
<path d="M256 901C289.333 834.333 322.667 834.333 356 901C389.333 967.667 422.667 967.667 456 901C489.333 834.333 522.667 834.333 556 901C589.333 967.667 622.667 967.667 656 901C689.333 834.333 722.667 834.333 756 901C789.333 967.667 822.667 967.667 856 901C889.333 834.333 922.667 834.333 956 901C989.333 967.667 1022.67 967.667 1056 901C1089.33 834.333 1122.67 834.333 1156 901C1189.33 967.667 1222.67 967.667 1256 901" stroke="white" stroke-width="2"/>
<path d="M735 307H745V317H735V307Z" fill="white"/>
<path d="M735 326H745V336H735V326Z" fill="white"/>
<path d="M735 346H745V355H735V346Z" fill="white"/>
<path d="M735 365H745V375H735V365Z" fill="white"/>
<path d="M735 384H745V394H735V384Z" fill="white"/>
<path d="M754 307H764V317H754V307Z" fill="white"/>
<path d="M754 326H764V336H754V326Z" fill="white"/>
<path d="M754 346H764V355H754V346Z" fill="white"/>
<path d="M754 365H764V375H754V365Z" fill="white"/>
<path d="M754 384H764V394H754V384Z" fill="white"/>
<path d="M774 307H783V317H774V307Z" fill="white"/>
<path d="M774 326H783V336H774V326Z" fill="white"/>
<path d="M774 346H783V355H774V346Z" fill="white"/>
<path d="M774 365H783V375H774V365Z" fill="white"/>
<path d="M774 384H783V394H774V384Z" fill="white"/>
<path d="M793 307H803V317H793V307Z" fill="white"/>
<path d="M793 326H803V336H793V326Z" fill="white"/>
<path d="M793 346H803V355H793V346Z" fill="white"/>
<path d="M793 365H803V375H793V365Z" fill="white"/>
<path d="M793 384H803V394H793V384Z" fill="white"/>
<path d="M812 307H822V317H812V307Z" fill="white"/>
<path d="M812 326H822V336H812V326Z" fill="white"/>
<path d="M812 346H822V355H812V346Z" fill="white"/>
<path d="M812 365H822V375H812V365Z" fill="white"/>
<path d="M812 384H822V394H812V384Z" fill="white"/>
<path d="M1295 208H1305V218H1295V208Z" fill="white"/>
<path d="M1295 227H1305V237H1295V227Z" fill="white"/>
<path d="M1295 247H1305V256H1295V247Z" fill="white"/>
<path d="M1295 266H1305V276H1295V266Z" fill="white"/>
<path d="M1295 285H1305V295H1295V285Z" fill="white"/>
<path d="M1314 208H1324V218H1314V208Z" fill="white"/>
<path d="M1314 227H1324V237H1314V227Z" fill="white"/>
<path d="M1314 247H1324V256H1314V247Z" fill="white"/>
<path d="M1314 266H1324V276H1314V266Z" fill="white"/>
<path d="M1314 285H1324V295H1314V285Z" fill="white"/>
<path d="M1334 208H1343V218H1334V208Z" fill="white"/>
<path d="M1334 227H1343V237H1334V227Z" fill="white"/>
<path d="M1334 247H1343V256H1334V247Z" fill="white"/>
<path d="M1334 266H1343V276H1334V266Z" fill="white"/>
<path d="M1334 285H1343V295H1334V285Z" fill="white"/>
<path d="M1353 208H1363V218H1353V208Z" fill="white"/>
<path d="M1353 227H1363V237H1353V227Z" fill="white"/>
<path d="M1353 247H1363V256H1353V247Z" fill="white"/>
<path d="M1353 266H1363V276H1353V266Z" fill="white"/>
<path d="M1353 285H1363V295H1353V285Z" fill="white"/>
<path d="M1372 208H1382V218H1372V208Z" fill="white"/>
<path d="M1372 227H1382V237H1372V227Z" fill="white"/>
<path d="M1372 247H1382V256H1372V247Z" fill="white"/>
<path d="M1372 266H1382V276H1372V266Z" fill="white"/>
<path d="M1372 285H1382V295H1372V285Z" fill="white"/>
<rect x="757.5" y="614.5" width="45" height="45" rx="12.5" stroke="white" stroke-width="3"/>
<rect x="699.5" y="656.5" width="45" height="45" rx="12.5" stroke="white" stroke-width="3"/>
<rect x="833.5" y="698.5" width="45" height="45" rx="12.5" stroke="white" stroke-width="3"/>
<rect x="843.5" y="624.5" width="25" height="25" rx="7.5" stroke="white" stroke-width="3"/>
<rect x="802.5" y="676.5" width="25" height="25" rx="7.5" stroke="white" stroke-width="3"/>
<rect x="763.5" y="727.5" width="25" height="25" rx="7.5" stroke="white" stroke-width="3"/>
<rect x="1468.5" y="731.5" width="45" height="45" rx="12.5" stroke="white" stroke-width="3"/>
<rect x="1410.5" y="773.5" width="45" height="45" rx="12.5" stroke="white" stroke-width="3"/>
<rect x="1474.5" y="844.5" width="25" height="25" rx="7.5" stroke="white" stroke-width="3"/>
</g>
<defs>
<clipPath id="clip0_66_433">
<rect width="1512" height="982" fill="white"/>
</clipPath>
</defs>
</svg>
